<svg width="85" height="84" xmlns="http://www.w3.org/2000/svg">
 <!-- Created with UXWing SVG Editor - https://uxwing.com/svg-icon-editor/ -->

 <g>
  <title>background</title>
  <rect fill="#0e2626" id="canvas_background" height="86" width="87" y="-1" x="-1"/>
  <g display="none" overflow="visible" y="0" x="0" height="100%" width="100%" id="canvasGrid">
   <rect fill="url(#gridpattern)" stroke-width="0" y="0" x="0" height="100%" width="100%"/>
  </g>
 </g>
 <g>
  <title>Layer 1</title>
  <style type="text/css">.st0{fill-rule:evenodd;clip-rule:evenodd;fill:#00D8FF;}</style>
  <g transform="rotate(-0.190704, 379.5, 143.002)" id="svg_7">
   <g transform="matrix(0.504504, 0, 0, 0.557006, -23.4906, -23.8358)" id="svg_5">
    <path id="svg_6" d="m860.226135,299.540039c0,-8.139984 -10.190002,-15.849976 -25.820007,-20.639984c3.609985,-15.929993 2,-28.599991 -5.059937,-32.660004c-1.630005,-0.949997 -3.530029,-1.399994 -5.610046,-1.399994l0,5.589996c1.150024,0 2.080017,0.230011 2.860046,0.650009c3.409973,1.949997 4.879944,9.389999 3.72998,18.959976c-0.280029,2.350037 -0.72998,4.830017 -1.280029,7.360016c-4.909973,-1.199982 -10.27002,-2.130005 -15.900024,-2.730011c-3.380005,-4.630005 -6.889954,-8.839966 -10.419983,-12.519989c8.160034,-7.599991 15.820007,-11.75 21.030029,-11.75l0,-5.589996l0,0c-6.890015,0 -15.900024,4.910004 -25.02002,13.429993c-9.119995,-8.469986 -18.130005,-13.329987 -25.02002,-13.329987l0,5.589996c5.179993,0 12.870056,4.130005 21.040039,11.669983c-3.51001,3.680023 -7.01001,7.860016 -10.340027,12.5c-5.659973,0.600006 -11.02002,1.530029 -15.929993,2.75c-0.580017,-2.5 -1,-4.929993 -1.299988,-7.259979c-1.179993,-9.570007 0.279968,-17.01001 3.659973,-18.990005c0.75,-0.449997 1.730042,-0.649994 2.880005,-0.649994l0,-5.580002l0,0c-2.099976,0 -4.01001,0.449997 -5.659973,1.399994c-7.040039,4.059998 -8.619995,16.709991 -4.980042,32.589996c-15.599976,4.799988 -25.73999,12.48999 -25.73999,20.609985c0,8.140015 10.190002,15.850037 25.820007,20.640015c-3.609985,15.930054 -2,28.600037 5.059998,32.660034c1.630005,0.950012 3.530029,1.399963 5.640015,1.399963c6.890015,0 15.899963,-4.909973 25.02002,-13.429993c9.119995,8.470032 18.129944,13.330017 25.019958,13.330017c2.100037,0 4.01001,-0.450012 5.660034,-1.400024c7.039978,-4.059998 8.619995,-16.709961 4.97998,-32.589966c15.540039,-4.780029 25.679993,-12.500031 25.679993,-20.610046l0,0zm-50.019958,0c0,-6.319977 -5.119995,-11.449982 -11.450012,-11.449982c-6.320007,0 -11.450012,5.119995 -11.450012,11.449982s5.119995,11.450012 11.450012,11.450012c6.330017,-0.01001 11.450012,-5.130005 11.450012,-11.450012l0,0zm-36.52002,-54.629974l0,0l0,0l0,0zm53.929993,37.920013c-0.929993,3.22998 -2.080017,6.559998 -3.380005,9.889984c-1.029968,-2 -2.099976,-4.01001 -3.279968,-6.01001c-1.150024,-2 -2.380005,-3.959991 -3.609985,-5.859985c3.559937,0.529999 6.98999,1.179993 10.269958,1.980011l0,0zm-11.470032,26.679993c-1.949951,3.380005 -3.959961,6.590027 -6.039978,9.570007c-3.72998,0.330017 -7.509949,0.5 -11.320007,0.5c-3.779968,0 -7.559998,-0.179993 -11.27002,-0.47998c-2.079956,-2.980042 -4.109985,-6.160034 -6.059937,-9.52005c-1.900024,-3.279999 -3.630005,-6.609985 -5.210022,-9.970001c1.549988,-3.359985 3.309998,-6.709991 5.179993,-9.98999c1.950012,-3.380005 3.960022,-6.589996 6.040039,-9.570007c3.72998,-0.329987 7.509949,-0.5 11.319946,-0.5c3.780029,0 7.560059,0.179993 11.27002,0.480011c2.080017,2.980011 4.109985,6.160004 6.059998,9.519989c1.899963,3.280029 3.630005,6.610016 5.210022,9.970001c-1.580017,3.350006 -3.300049,6.700012 -5.180054,9.990021l0,0zm8.090027,-3.26001c1.350037,3.359985 2.5,6.710022 3.460022,9.970032c-3.280029,0.799988 -6.73999,1.47998 -10.320007,2c1.22998,-1.929993 2.450012,-3.910034 3.609985,-5.940033c1.140015,-2 2.220032,-4.029999 3.25,-6.029999l0,0zm-25.399963,26.720032c-2.330017,-2.400024 -4.660034,-5.080017 -6.960022,-8.01001c2.25,0.099976 4.559998,0.179993 6.889954,0.179993c2.350037,0 4.680054,-0.049988 6.960022,-0.179993c-2.259949,2.929993 -4.589966,5.609985 -6.889954,8.01001l0,0zm-18.630066,-14.75c-3.559998,-0.530029 -6.98999,-1.179993 -10.269958,-1.980042c0.929993,-3.22998 2.079956,-6.559998 3.380005,-9.889984c1.029968,2 2.099976,4.009979 3.279968,6.009979c1.179993,2.01001 2.380005,3.960022 3.609985,5.860046l0,0zm18.500061,-52.120026c2.329956,2.399994 4.659973,5.079987 6.959961,8.009979c-2.25,-0.099976 -4.559998,-0.179993 -6.890015,-0.179993c-2.349976,0 -4.679932,0.049988 -6.959961,0.179993c2.26001,-2.929993 4.589966,-5.609985 6.890015,-8.009979l0,0zm-18.530029,14.75c-1.22998,1.929993 -2.450012,3.910004 -3.609985,5.939972c-1.150024,2 -2.230042,4.01001 -3.26001,6.01001c-1.350037,-3.359985 -2.5,-6.709991 -3.460022,-9.969971c3.290039,-0.780029 6.75,-1.450012 10.330017,-1.980011l0,0zm-22.669983,31.359985c-8.869995,-3.779999 -14.600037,-8.73999 -14.600037,-12.670013c0,-3.929993 5.73999,-8.919983 14.600037,-12.669983c2.149963,-0.929993 4.51001,-1.75 6.940002,-2.529999c1.429993,4.910004 3.309998,10.019989 5.639954,15.25c-2.299988,5.209991 -4.159973,10.290009 -5.559998,15.180023c-2.47998,-0.780029 -4.839966,-1.630005 -7.019958,-2.560028l0,0zm13.47998,35.790009c-3.409973,-1.950012 -4.880005,-9.389954 -3.72998,-18.959961c0.279968,-2.350037 0.72998,-4.830017 1.279968,-7.360046c4.910034,1.200012 10.27002,2.130005 15.900024,2.730042c3.380005,4.630005 6.890015,8.839966 10.419983,12.519958c-8.169983,7.590027 -15.830017,11.75 -21.039978,11.75c-1.130005,-0.029968 -2.080017,-0.25 -2.830017,-0.679993l0,0zm59.409973,-19.079956c1.180054,9.569946 -0.279968,17.009949 -3.659973,18.98999c-0.75,0.450012 -1.72998,0.649963 -2.880005,0.649963c-5.179993,0 -12.869995,-4.130005 -21.039978,-11.669983c3.51001,-3.679993 7.01001,-7.859985 10.339966,-12.5c5.660034,-0.599976 11.02002,-1.529968 15.930054,-2.76001c0.579956,2.530029 1.029968,4.960022 1.309937,7.290039l0,0zm9.640015,-16.710052c-2.149963,0.930023 -4.51001,1.750031 -6.939941,2.529999c-1.430054,-4.910004 -3.310059,-10.019989 -5.640015,-15.25c2.299988,-5.209991 4.159973,-10.289978 5.559937,-15.179993c2.480042,0.779999 4.830078,1.630005 7.040039,2.549988c8.869995,3.780029 14.599976,8.740021 14.599976,12.670013c-0.019958,3.940002 -5.75,8.920013 -14.619995,12.679993l0,0z" class="st0"/>
   </g>
  </g>
  <style type="text/css">.st0{fill-rule:evenodd;clip-rule:evenodd;fill:#DD0031;} .st1{fill-rule:evenodd;clip-rule:evenodd;fill:#C3002F;} .st2{fill-rule:evenodd;clip-rule:evenodd;fill:#FFFFFF;}</style>
  <g id="svg_16">
   <g transform="matrix(0.244755, 0, 0, 0.244755, 0, 0)" id="svg_12">
    <polygon id="svg_13" points="157.30016326904297,441.1033477783203 157.30016326904297,441.1033477783203 157.30016326904297,441.1033477783203 100.10015869140625,461.5033416748047 108.82015991210938,537.1333465576172 157.30016326904297,563.9833374023438 157.30016326904297,563.9833374023438 157.30016326904297,563.9833374023438 205.78015899658203,537.1333465576172 214.50016021728516,461.5033416748047 157.30016326904297,441.1033477783203 " class="st0"/>
    <polygon id="svg_14" points="157.30016326904297,441.1033477783203 157.30016326904297,454.74334716796875 157.30016326904297,454.683349609375 157.30016326904297,516.92333984375 157.30016326904297,516.92333984375 157.30016326904297,563.9833374023438 157.30016326904297,563.9833374023438 205.78015899658203,537.1333465576172 214.50016021728516,461.5033416748047 157.30016326904297,441.1033477783203 " class="st1"/>
    <path id="svg_15" d="m157.300171,454.68335l-35.760017,80.179993l0,0l13.329994,0l0,0l7.190002,-17.940002l30.350006,0l7.190002,17.940002l0,0l13.330017,0l0,0l-35.630005,-80.179993l0,0l0,0l0,0l0,0l0,0zm10.449982,51.179993l-20.889984,0l10.440002,-25.130005l10.449982,25.130005l0,0z" class="st2"/>
   </g>
  </g>
  <style type="text/css">.st0{fill-rule:evenodd;clip-rule:evenodd;fill:#DD0031;} .st1{fill-rule:evenodd;clip-rule:evenodd;fill:#C3002F;} .st2{fill-rule:evenodd;clip-rule:evenodd;fill:#FFFFFF;}</style>
  <g id="svg_25">
   <g transform="matrix(0.384615, 0, 0, 0.358687, -18.7715, -12.0395)" id="svg_21">
    <polygon id="svg_22" points="122.9058723449707,947.9057998657227 122.9058723449707,947.9057998657227 122.9058723449707,947.9057998657227 65.70584487915039,968.305793762207 74.42584609985352,1043.935806274414 122.9058723449707,1070.7858123779297 122.9058723449707,1070.7858123779297 122.9058723449707,1070.7858123779297 171.38586807250977,1043.935806274414 180.1058692932129,968.305793762207 122.9058723449707,947.9057998657227 " class="st0"/>
    <polygon id="svg_23" points="122.9058723449707,947.9057998657227 122.9058723449707,961.5457992553711 122.9058723449707,961.4858016967773 122.9058723449707,1023.7258148193359 122.9058723449707,1023.7258148193359 122.9058723449707,1070.7858123779297 122.9058723449707,1070.7858123779297 171.38586807250977,1043.935806274414 180.1058692932129,968.305793762207 122.9058723449707,947.9057998657227 " class="st1"/>
    <path id="svg_24" d="m122.905869,961.485779l-35.760025,80.179993l0,0l13.330017,0l0,0l7.190002,-17.939941l30.349991,0l7.190002,17.939941l0,0l13.330017,0l0,0l-35.630005,-80.179993l0,0l0,0l0,0l0,0l0,0zm10.449997,51.180054l-20.889999,0l10.440002,-25.130005l10.449997,25.130005l0,0z" class="st2"/>
   </g>
  </g>
  <style type="text/css">
   <![CDATA[
	.st0{fill-rule:evenodd;clip-rule:evenodd;}
]]>
  </style>
  <g id="svg_32">
   <g transform="matrix(0.463868, 0, 0, 0.52228, -29.5179, -39.2665)" id="svg_30">
    <path id="svg_31" d="m98.233063,104.650963l116.199982,0c1.840012,0 3.340012,1.5 3.340012,3.339996l0,76.980003c0,1.839996 -1.5,3.339996 -3.340012,3.339996l-116.199982,0c-1.839996,0 -3.339996,-1.5 -3.339996,-3.339996l0,-76.980003c0,-1.839996 1.5,-3.339996 3.339996,-3.339996l0,0l0,0l0,0zm78.359985,67.730003l-16.059998,-9.730011l0,-6.169998l16.059998,-9.729996l0,7.329987l-9.759995,5.5l9.759995,5.5l0,7.300018l0,0l0,0zm9.970001,0l16.060013,-9.730011l0,-6.169998l-16.060013,-9.729996l0,7.329987l9.76001,5.5l-9.76001,5.5l0,7.300018l0,0l0,0zm-53.029999,-23.750015l3.830002,3.830002c1.01001,1.01001 1.01001,2.660004 0,3.660004l-3.080002,3.080002c0.850006,1.589996 1.5,3.300003 1.910004,5.099991l3.990005,0c1.419998,0 2.589996,1.170013 2.589996,2.589996l0,5.410004c0,1.420013 -1.169998,2.589996 -2.589996,2.589996l-4.360001,0c-0.389999,1.279999 -0.889999,2.5 -1.51001,3.660004l75.51001,0c1.619995,0 2.949997,-1.329987 2.949997,-2.949997l0,-62.759987c0,-1.619995 -1.319992,-2.949997 -2.949997,-2.949997l-106.970001,0l0,0l0,0c-1.630005,0 -2.959991,1.330002 -2.949997,2.949997l0,34.609993c1.009995,-0.790009 2.5,-0.729996 3.419998,0.209991l3.080002,3.080002c1.589996,-0.849991 3.300003,-1.5 5.099991,-1.910004l0,-3.98999c0,-1.419998 1.170013,-2.580002 2.590012,-2.580002l5.409988,0c1.420013,0 2.590012,1.169998 2.590012,2.589996l0,4.350006c1.759995,0.539993 3.429993,1.300003 4.949997,2.259995l2.820007,-2.830002c1.019989,-1.009995 2.659988,-1.009995 3.669983,0l0,0l0,0l0,0zm-17.419998,8.320007c6.600006,0 11.949997,5.349991 11.949997,11.960007c0,3.959991 -1.919998,7.469986 -4.889984,9.639984l-14.12001,0c-2.970001,-2.169983 -4.889999,-5.679993 -4.889999,-9.639984c0,-6.610016 5.350006,-11.960007 11.949997,-11.960007l0,0l0,0l0,0zm-7.569992,-28.050003l7.669998,0c0.589996,0 1.069992,0.5 1.069992,1.070007l0,2.179993c0,0.580002 -0.5,1.070007 -1.069992,1.070007l-7.669998,0c-0.580002,0 -1.070007,-0.480011 -1.070007,-1.070007l0,-2.179993c-0.009995,-0.590012 0.470001,-1.070007 1.070007,-1.070007l0,0zm12.699997,-11.129997l29.680008,0c0.589996,0 1.069992,0.490005 1.069992,1.070007l0,2.179993c0,0.589996 -0.490005,1.070007 -1.069992,1.070007l-29.680008,0c-0.589996,0 -1.069992,-0.480011 -1.069992,-1.070007l0,-2.179993c0,-0.589996 0.479996,-1.070007 1.069992,-1.070007l0,0zm-12.699997,0l7.669998,0c0.589996,0 1.069992,0.480011 1.069992,1.070007l0,2.179993c0,0.589996 -0.479996,1.070007 -1.069992,1.070007l-7.669998,0c-0.589996,0 -1.070007,-0.480011 -1.070007,-1.070007l0,-2.179993c-0.009995,-0.589996 0.470001,-1.070007 1.070007,-1.070007l0,0zm24.709991,11.129997l49.25,0c0.590012,0 1.070007,0.5 1.070007,1.070007l0,2.179993c0,0.570007 -0.5,1.070007 -1.070007,1.070007l-49.25,0c-0.579987,0 -1.069992,-0.480011 -1.069992,-1.070007l0,-2.179993c0,-0.590012 0.479996,-1.070007 1.069992,-1.070007l0,0zm-12.149994,0l7.669998,0c0.589996,0 1.070007,0.5 1.070007,1.070007l0,2.179993c0,0.580002 -0.5,1.070007 -1.070007,1.070007l-7.669998,0c-0.580002,0 -1.070007,-0.480011 -1.070007,-1.070007l0,-2.179993c-0.009995,-0.590012 0.480011,-1.070007 1.070007,-1.070007l0,0zm20.080002,64.019989l30.300003,0c0.079987,5.240005 2.23999,9.930008 8.089996,13.630005l-46.479996,0c4.679993,-3.389984 8.110001,-7.509995 8.089996,-13.630005l0,0l0,0l0,0z" class="st0"/>
   </g>
  </g>
 </g>
</svg>