<svg width="85" height="84" xmlns="http://www.w3.org/2000/svg">
 <!-- Created with UXWing SVG Editor - https://uxwing.com/svg-icon-editor/ -->

 <g>
  <title>background</title>
  <rect fill="#0e2626" id="canvas_background" height="86" width="87" y="-1" x="-1"/>
  <g display="none" overflow="visible" y="0" x="0" height="100%" width="100%" id="canvasGrid">
   <rect fill="url(#gridpattern)" stroke-width="0" y="0" x="0" height="100%" width="100%"/>
  </g>
 </g>
 <g>
  <title>Layer 1</title>
  <style type="text/css">.st0{fill-rule:evenodd;clip-rule:evenodd;fill:#00D8FF;}</style>
  <g transform="rotate(-0.190704, 43.5, 41.002)" id="svg_7">
   <g transform="matrix(0.504504, 0, 0, 0.557006, -23.4906, -23.8358)" id="svg_5">
    <path id="svg_6" d="m194.225174,116.418152c0,-8.139999 -10.189987,-15.849991 -25.819992,-20.639999c3.609985,-15.929993 2,-28.599991 -5.059998,-32.660007c-1.630005,-0.949997 -3.529999,-1.399994 -5.610016,-1.399994l0,5.59c1.150009,0 2.080017,0.230011 2.860016,0.650009c3.410004,1.949997 4.87999,9.389999 3.729996,18.959991c-0.280014,2.350006 -0.729996,4.830002 -1.280014,7.360001c-4.909988,-1.199997 -10.269989,-2.130005 -15.899994,-2.729996c-3.380005,-4.630005 -6.889984,-8.839996 -10.419998,-12.520004c8.160004,-7.599991 15.819992,-11.75 21.030014,-11.75l0,-5.59l0,0c-6.890015,0 -15.900009,4.910007 -25.02002,13.429996c-9.119995,-8.469986 -18.129997,-13.32999 -25.019997,-13.32999l0,5.59c5.179993,0 12.870003,4.130005 21.040001,11.669998c-3.509995,3.680008 -7.009995,7.860001 -10.339996,12.5c-5.660011,0.599991 -11.020012,1.529999 -15.930016,2.75c-0.579987,-2.5 -1,-4.930008 -1.299988,-7.259995c-1.180008,-9.570007 0.279999,-17.01001 3.660004,-18.990005c0.75,-0.449997 1.729996,-0.649994 2.87999,-0.649994l0,-5.580006l0,0c-2.099991,0 -4.009995,0.449997 -5.660004,1.399994c-7.039993,4.060001 -8.619995,16.710011 -4.979996,32.59c-15.599991,4.800003 -25.740005,12.490005 -25.740005,20.610001c0,8.139999 10.190002,15.850021 25.820007,20.640015c-3.610001,15.930023 -2,28.600006 5.059998,32.660004c1.630005,0.950012 3.529999,1.399994 5.639999,1.399994c6.889999,0 15.900002,-4.910004 25.020012,-13.429993c9.12001,8.470001 18.12999,13.330017 25.020004,13.330017c2.100006,0 4.009995,-0.450012 5.660004,-1.400024c7.039993,-4.059998 8.619995,-16.709991 4.97998,-32.589996c15.540009,-4.779999 25.680008,-12.500015 25.680008,-20.610016l0,0zm-50.020004,0c0,-6.319992 -5.119995,-11.449997 -11.449997,-11.449997c-6.319992,0 -11.449997,5.119995 -11.449997,11.449997s5.119995,11.449997 11.449997,11.449997c6.330002,-0.009995 11.449997,-5.12999 11.449997,-11.449997l0,0zm-36.519997,-54.629993l0,0l0,0l0,0zm53.93,37.920002c-0.929993,3.229996 -2.079987,6.559998 -3.380005,9.889999c-1.029999,-2 -2.099991,-4.01001 -3.279999,-6.01001c-1.149994,-2 -2.37999,-3.959991 -3.609985,-5.859985c3.559998,0.529999 6.98999,1.179993 10.269989,1.979996l0,0zm-11.470001,26.679993c-1.949997,3.380005 -3.959991,6.590027 -6.039993,9.570007c-3.729996,0.330017 -7.509995,0.5 -11.320007,0.5c-3.779999,0 -7.559998,-0.179993 -11.270004,-0.47998c-2.079987,-2.980011 -4.109985,-6.160004 -6.059998,-9.520035c-1.900002,-3.279984 -3.629997,-6.609985 -5.209999,-9.969986c1.550003,-3.360001 3.309998,-6.710007 5.18,-9.990005c1.950012,-3.380005 3.960007,-6.589996 6.040009,-9.569992c3.729996,-0.330002 7.509995,-0.5 11.319992,-0.5c3.780014,0 7.560013,0.179993 11.270004,0.479996c2.080002,2.979996 4.110001,6.160004 6.059998,9.520004c1.899994,3.279999 3.630005,6.610001 5.210007,9.969986c-1.580002,3.350006 -3.300003,6.700012 -5.180008,9.990005l0,0zm8.089996,-3.259995c1.350006,3.360001 2.5,6.710007 3.460007,9.970016c-3.279999,0.799988 -6.740005,1.480011 -10.319992,2c1.229996,-1.929993 2.449997,-3.910004 3.609985,-5.940018c1.140015,-2 2.220001,-4.029999 3.25,-6.029999l0,0zm-25.399994,26.720016c-2.330002,-2.399994 -4.660004,-5.079987 -6.959991,-8.01001c2.25,0.100006 4.559998,0.180023 6.889984,0.180023c2.350006,0 4.680008,-0.050018 6.960007,-0.180023c-2.259995,2.930023 -4.589996,5.610016 -6.889999,8.01001l0,0zm-18.630013,-14.75c-3.559998,-0.529999 -6.98999,-1.179993 -10.269989,-1.980011c0.929993,-3.229996 2.079987,-6.560013 3.380005,-9.889999c1.029999,2 2.099991,4.009995 3.279999,6.009995c1.179993,2.01001 2.37999,3.960022 3.609985,5.860016l0,0zm18.500008,-52.12001c2.330002,2.399994 4.660004,5.079987 6.960007,8.009995c-2.25,-0.100006 -4.559998,-0.180008 -6.889999,-0.180008c-2.350006,0 -4.679993,0.050003 -6.959991,0.180008c2.259995,-2.930008 4.589996,-5.610001 6.889984,-8.009995l0,0zm-18.530006,14.75c-1.229996,1.929993 -2.449997,3.909988 -3.609985,5.939987c-1.150009,2 -2.230011,4.01001 -3.26001,6.01001c-1.350006,-3.360001 -2.5,-6.710007 -3.459991,-9.970001c3.289993,-0.779999 6.75,-1.449997 10.329987,-1.979996l0,0zm-22.669998,31.359985c-8.869995,-3.779999 -14.599991,-8.73999 -14.599991,-12.669998c0,-3.929993 5.73999,-8.919998 14.599991,-12.669998c2.150009,-0.929993 4.51001,-1.75 6.940002,-2.529999c1.430008,4.910004 3.309998,10.020004 5.639999,15.25c-2.300003,5.210007 -4.160004,10.290009 -5.559998,15.180008c-2.479996,-0.779999 -4.839996,-1.62999 -7.020004,-2.560013l0,0zm13.479996,35.790024c-3.409988,-1.950012 -4.87999,-9.389984 -3.729996,-18.959991c0.279999,-2.350006 0.729996,-4.830017 1.279999,-7.360016c4.910004,1.200012 10.270004,2.130005 15.900017,2.730011c3.380005,4.630005 6.889999,8.839996 10.419998,12.519989c-8.169998,7.589996 -15.830009,11.75 -21.040001,11.75c-1.130005,-0.029999 -2.080017,-0.25 -2.830017,-0.679993l0,0zm59.410011,-19.079987c1.180008,9.569977 -0.279999,17.009979 -3.660004,18.98999c-0.75,0.450012 -1.72998,0.649994 -2.87999,0.649994c-5.180008,0 -12.87001,-4.130005 -21.039993,-11.669983c3.509995,-3.680023 7.009995,-7.860016 10.339996,-12.5c5.660004,-0.600006 11.019989,-1.529999 15.929993,-2.76001c0.580002,2.529999 1.029999,4.959991 1.309998,7.290009l0,0zm9.640015,-16.710037c-2.150009,0.930023 -4.51001,1.750015 -6.940002,2.530014c-1.430008,-4.910019 -3.309998,-10.020004 -5.640015,-15.250015c2.300018,-5.209991 4.160004,-10.289993 5.559998,-15.179993c2.480011,0.779999 4.830017,1.630005 7.040009,2.550003c8.869995,3.779999 14.600006,8.740005 14.600006,12.669998c-0.020004,3.940002 -5.75,8.919998 -14.619995,12.679993l0,0z" class="st0"/>
   </g>
  </g>
 </g>
</svg>